M48
; DRILL file KiCad 10.0.3 date 2026-06-21T13:56:37
; FORMAT={-:-/ absolute / metric / decimal}
; #@! TF.CreationDate,2026-06-21T13:56:37+04:00
; #@! TF.GenerationSoftware,Kicad,Pcbnew,10.0.3
; #@! TF.FileFunction,NonPlated,1,2,NPTH
FMAT,2
METRIC
; #@! TA.AperFunction,NonPlated,NPTH,ComponentDrill
T1C1.700
; #@! TA.AperFunction,NonPlated,NPTH,ComponentDrill
T2C2.540
; #@! TA.AperFunction,NonPlated,NPTH,ComponentDrill
T3C3.200
; #@! TA.AperFunction,NonPlated,NPTH,ComponentDrill
T4C4.000
%
G90
G05
T1
X115.951Y-62.689
X115.951Y-81.689
X115.951Y-100.689
X115.951Y-119.689
X115.951Y-138.689
X126.111Y-62.689
X126.111Y-81.689
X126.111Y-100.689
X126.111Y-119.689
X126.111Y-138.689
X135.051Y-62.689
X135.051Y-81.689
X135.051Y-100.689
X135.051Y-119.689
X135.051Y-138.689
X145.211Y-62.689
X145.211Y-81.689
X145.211Y-100.689
X145.211Y-119.689
X145.211Y-138.689
X154.151Y-62.689
X154.151Y-81.689
X154.151Y-100.689
X154.151Y-119.689
X154.151Y-138.689
X164.311Y-62.689
X164.311Y-81.689
X164.311Y-100.689
X164.311Y-119.689
X164.311Y-138.689
X173.251Y-62.689
X173.251Y-81.689
X173.251Y-100.689
X173.251Y-119.689
X173.251Y-138.689
X183.411Y-62.689
X183.411Y-81.689
X183.411Y-100.689
X183.411Y-119.689
X183.411Y-138.689
T2
X139.301Y-29.539
X139.301Y-47.319
X185.021Y-29.539
X185.021Y-47.319
T3
X96.7Y-29.5
T4
X121.031Y-62.689
X121.031Y-81.689
X121.031Y-100.689
X121.031Y-119.689
X121.031Y-138.689
X140.131Y-62.689
X140.131Y-81.689
X140.131Y-100.689
X140.131Y-119.689
X140.131Y-138.689
X159.231Y-62.689
X159.231Y-81.689
X159.231Y-100.689
X159.231Y-119.689
X159.231Y-138.689
X178.331Y-62.689
X178.331Y-81.689
X178.331Y-100.689
X178.331Y-119.689
X178.331Y-138.689
M30
