M48
; DRILL file KiCad 10.0.3 date 2026-06-21T13:56:37
; FORMAT={-:-/ absolute / metric / decimal}
; #@! TF.CreationDate,2026-06-21T13:56:37+04:00
; #@! TF.GenerationSoftware,Kicad,Pcbnew,10.0.3
; #@! TF.FileFunction,Plated,1,2,PTH
FMAT,2
METRIC
; #@! TA.AperFunction,Plated,PTH,ViaDrill
T1C0.300
; #@! TA.AperFunction,Plated,PTH,ComponentDrill
T2C0.500
; #@! TA.AperFunction,Plated,PTH,ComponentDrill
T3C0.900
; #@! TA.AperFunction,Plated,PTH,ComponentDrill
T4C1.000
; #@! TA.AperFunction,Plated,PTH,ComponentDrill
T5C1.500
%
G90
G05
T1
X105.9Y-41.0
X107.27Y-110.06
X109.916Y-95.774
X110.925Y-76.335
X110.982Y-131.812
X133.321Y-85.939
X144.424Y-131.1
X149.904Y-84.465
T2
X126.5Y-35.0
X127.5Y-35.0
X128.5Y-35.0
T3
X95.541Y-117.819
X95.541Y-122.069
X95.541Y-126.319
X95.541Y-130.569
X95.541Y-134.819
X95.541Y-139.069
X95.561Y-54.739
X95.561Y-58.989
X95.561Y-63.239
X95.561Y-67.489
X95.561Y-71.739
X95.561Y-75.989
X95.561Y-81.689
X95.561Y-85.939
X95.561Y-90.189
X95.561Y-94.439
X95.561Y-98.689
X95.561Y-102.939
X95.561Y-106.989
X95.661Y-111.789
X108.241Y-117.819
X108.241Y-122.069
X108.241Y-126.319
X108.241Y-130.569
X108.241Y-134.819
X108.241Y-139.069
X108.261Y-54.739
X108.261Y-58.989
X108.261Y-63.239
X108.261Y-67.489
X108.261Y-71.739
X108.261Y-75.989
X108.261Y-81.689
X108.261Y-85.939
X108.261Y-90.189
X108.261Y-94.439
X108.261Y-98.689
X108.261Y-102.939
X108.261Y-106.989
X108.361Y-111.789
T4
X143.111Y-48.589
X145.651Y-48.589
X148.191Y-48.589
X150.731Y-48.589
X153.271Y-28.269
X153.271Y-48.589
X155.811Y-28.269
X155.811Y-48.589
X158.351Y-28.269
X158.351Y-48.589
X160.891Y-28.269
X160.891Y-48.589
X163.431Y-28.269
X163.431Y-48.589
X165.971Y-28.269
X165.971Y-48.589
X168.511Y-28.269
X168.511Y-48.589
X171.051Y-28.269
X171.051Y-48.589
X173.591Y-28.269
X173.591Y-48.589
X176.131Y-28.269
X176.131Y-48.589
X178.671Y-28.269
X178.671Y-48.589
X181.211Y-28.269
X181.211Y-48.589
T5
X117.221Y-60.149
X117.221Y-79.149
X117.221Y-98.149
X117.221Y-117.149
X117.221Y-136.149
X123.571Y-57.609
X123.571Y-76.609
X123.571Y-95.609
X123.571Y-114.609
X123.571Y-133.609
X136.321Y-60.149
X136.321Y-79.149
X136.321Y-98.149
X136.321Y-117.149
X136.321Y-136.149
X142.671Y-57.609
X142.671Y-76.609
X142.671Y-95.609
X142.671Y-114.609
X142.671Y-133.609
X155.421Y-60.149
X155.421Y-79.149
X155.421Y-98.149
X155.421Y-117.149
X155.421Y-136.149
X161.771Y-57.609
X161.771Y-76.609
X161.771Y-95.609
X161.771Y-114.609
X161.771Y-133.609
X174.521Y-60.149
X174.521Y-79.149
X174.521Y-98.149
X174.521Y-117.149
X174.521Y-136.149
X180.871Y-57.609
X180.871Y-76.609
X180.871Y-95.609
X180.871Y-114.609
X180.871Y-133.609
M30
